# xmcd CD database file
#
# Track frame offsets:
#	150
#	26731
#	50509
#	72657
#	99591
#	122334
#	141136
#	158393
#	187239
#
# Disc length: 2771 seconds
#
# Revision: 3
# Processed by: cddbd v1.5.2PL0 Copyright (c) Steve Scherf et al.
# Submitted via: CDex 1.51
#
DISCID=7b0ad109
DTITLE=Malene Mortensen - Malene en Concert  (Alhambra, Paris le 12 avril 2008)
DYEAR=2008
DGENRE=Jazz
TTITLE0=Take Five
TTITLE1=Blur
TTITLE2=Date With a Dream
TTITLE3=Temptation
TTITLE4=All I Want
TTITLE5=Morning Sun
TTITLE6=Desperado
TTITLE7=Mystery Man
TTITLE8=We'll be Together again
EXTD=YEAR: 2008
EXTT0=
EXTT1=
EXTT2=
EXTT3=
EXTT4=
EXTT5=
EXTT6=
EXTT7=
EXTT8=
PLAYORDER=
